<svg xmlns="http://www.w3.org/2000/svg" width="1000" height="1000" viewBox="0 0 1000 1000" role="img" aria-label="Minimalist woven grid on cream background with slightly closer lines">
  <rect width="100%" height="100%" fill="#F0E9D2"/>

  <!-- Horizontal lines (3) - slightly closer spacing -->
  <path d="M120 340 C260 360, 380 400, 500 380 C620 360, 740 400, 880 380"
        fill="none" stroke="#678983" stroke-width="13" stroke-linecap="round" stroke-linejoin="round"/>
  <path d="M100 520 C260 480, 380 520, 500 500 C620 480, 740 520, 900 500"
        fill="none" stroke="#181D31" stroke-width="13" stroke-linecap="round" stroke-linejoin="round"/>
  <path d="M120 650 C260 600, 380 640, 500 620 C620 600, 740 640, 880 620"
        fill="none" stroke="#181D31" stroke-width="13" stroke-linecap="round" stroke-linejoin="round"/>

  <!-- Vertical lines (3) - slightly closer spacing -->
  <path d="M380 140 C330 260, 380 380, 380 500 C380 620, 380 740, 280 880"
        fill="none" stroke="#181D31" stroke-width="13" stroke-linecap="round" stroke-linejoin="round"/>
  <path d="M500 120 C510 260, 520 380, 500 500 C480 620, 520 740, 480 880"
        fill="none" stroke="#678983" stroke-width="13" stroke-linecap="round" stroke-linejoin="round"/>
  <path d="M670 120 C600 260, 620 390, 620 500 C620 620, 620 740, 660 880"
        fill="none" stroke="#181D31" stroke-width="13" stroke-linecap="round" stroke-linejoin="round"/>
</svg>
